
<?xml version="1.0" encoding="utf-8"?>
<!-- Generator: Adobe Illustrator 19.2.1, SVG Export Plug-In . SVG Version: 6.00 Build 0)  -->
<svg version="1.1" id="layer" xmlns="http://www.w3.org/2000/svg" xmlns:xlink="http://www.w3.org/1999/xlink" x="0px" y="0px"
	 viewBox="0 0 652 652" style="enable-background:new 0 0 652 652;" xml:space="preserve">
<style type="text/css">
	.st0{fill:#003399;}
	.st1{fill:#FFFFFF;}
	.st2{fill:#014593;}
</style>
<path class="st0" d="M564.2,386.4c-0.1-0.2-0.3-0.4-0.5-0.5l-30.4-11.7c0.8-2.9,2.1-5.6,3.8-8.1l15.7,6.9c1.9,0.8,4,0.1,5-1.7
	c1.1-1.6,2-3.4,2.7-5.2c1.5-3.4,1.9-7.2,1-10.8c-1-3.3-3.5-5.9-6.7-7.2l-41.9-19.2l-0.3-0.1l0,0c-2.6-1.1-5.6-1.3-8.3-0.3
	c0-1.3,0-2.6,0-3.9c0-3.3-0.1-6.7-0.3-10.1c-0.2-3.4-0.5-7.1-0.9-10.7c-1.5-14.5-4.6-28.7-9.3-42.5l-0.7-1.9
	c-8.2-22.9-14.7-41.1-14.5-62.7c0.1-16.3,20.6-39.3,28.4-46.7l7.4-7l-77.6-70.7l-6.1,4c-14.2,9.3-32.6,14.5-51.7,14.5
	c-20.1,0-39.1-5.6-53.5-15.7l-5.4-3.8l-5.3,3.8c-14.4,10.1-33.4,15.7-53.5,15.7c-19.2,0-37.5-5.1-51.7-14.5l-6.1-4l-70.1,63.8
	l-7.5,6.8l7.4,7c7.9,7.5,28.3,30.4,28.4,46.7c0.2,21.7-6.3,39.8-14.5,62.7l-0.7,1.9c-4.7,13.8-7.8,28-9.3,42.5
	c-0.4,3.6-0.7,7.2-0.9,10.7s-0.3,6.8-0.3,10.1c0,1.3,0,2.6,0,3.9c-2.7-0.9-5.6-0.8-8.3,0.3l0,0l-0.3,0.1l-42,19.3
	c-3.2,1.2-5.7,3.9-6.7,7.2c-0.9,3.6-0.5,7.4,1,10.8c0.7,1.8,1.6,3.6,2.7,5.2c1,1.7,3.2,2.4,5.1,1.6L103,366c1.7,2.5,3,5.2,3.8,8.1
	l-30.4,11.7c-0.2,0.1-0.4,0.3-0.5,0.5c-0.1,0.2-0.1,0.5,0,0.8l1.8,4.6C115,485.4,203,549.2,303.7,555.5l15.7,15.5
	c0.4,0.3,1,0.3,1.3,0l15.7-15.5l0,0c100.7-6.3,188.7-70.1,226.1-163.8l1.8-4.6C564.4,386.9,564.4,386.6,564.2,386.4z M205.2,461.2
	c-26.5-18.4-48.1-42.9-63.2-71.3l7.5-2.7c0.2,0.5,0.5,0.9,0.7,1.3c1.7,3,3.5,6,5.5,8.9l0.8,1.2l0.1,0.2
	c33.7,50.5,83.3,82.1,139.7,88.8l9,9C269.4,494.1,234.8,481.8,205.2,461.2z M434.9,461.2c-29.6,20.6-64.2,32.9-100.2,35.4l9-9
	c56.4-6.7,106-38.3,139.7-88.8l0.1-0.2l0.8-1.2c2-2.9,3.8-5.8,5.5-8.8c0.3-0.5,0.5-0.9,0.7-1.3l7.5,2.7
	C483,418.4,461.3,442.8,434.9,461.2L434.9,461.2z"/>
<path class="st1" d="M504.2,330.6c1.2-0.5,2.5-0.8,3.8-0.8c1.3,0,2.6,0.3,3.8,0.8l0.3,0.1L554,350c2.7,1,4.7,3.2,5.6,5.9
	c0.7,3.2,0.4,6.5-1,9.5c-0.7,1.7-1.5,3.3-2.4,4.8c-0.5,0.9-1.6,1.3-2.6,0.9l-17.2-7.6l-0.5,0.6c-2,2.8-3.5,5.9-4.5,9.2l-2.8-1.1
	c0.9-3.2,2.4-6.3,4.3-9l0.7-1l-19.9-8.8c-1-0.4-1.4-1.5-1.1-2.5l0.3-0.8c1.6-3.4,2.2-7.2,1.7-11c-0.3-2.5-1.6-4.7-3.8-6l-0.3-0.1
	c-0.8-0.3-1.6-0.5-2.5-0.5c-1.4,0-2.8,0.4-4,1.2C504.2,332.9,504.2,331.7,504.2,330.6z"/>
<path class="st1" d="M139,314.7c0.2-3.5,0.5-7,0.9-10.6c1.5-14.2,4.6-28.3,9.2-41.8l0.7-1.9c8.3-23.2,14.9-41.6,14.7-63.8
	c-0.1-17.4-21.2-41.2-29.4-48.9l-5-4.8l5.1-4.7l68.3-62.2l4.2,2.7c14.7,9.6,33.6,14.9,53.4,14.9c20.7,0,40.3-5.8,55.2-16.2l3.6-2.6
	l3.7,2.6c15,10.5,34.6,16.2,55.3,16.2c19.7,0,38.7-5.3,53.4-14.9l4.2-2.7l73.4,66.9l-5,4.8c-8.1,7.7-29.2,31.5-29.4,48.9
	c-0.2,22.2,6.4,40.5,14.7,63.8l0.7,1.9c4.6,13.5,7.8,27.5,9.3,41.8c0.4,3.5,0.7,7.1,0.9,10.6s0.3,6.7,0.3,10
	c0.1,24.2-4.6,45.3-14.1,62.5c-1.6,3-3.4,5.8-5.3,8.6l-0.8,1.3l-0.1,0.2c-33.3,49.9-82.3,81-138.1,87.6h-0.5L320,507.1l-22.3-22.3
	h-0.5c-55.8-6.5-104.8-37.6-138.1-87.6l-0.1-0.2l-0.8-1.2c-1.9-2.8-3.7-5.6-5.3-8.6c-9.4-17.2-14.2-38.3-14.1-62.5
	C138.7,321.4,138.8,318,139,314.7z"/>
<path class="st1" d="M104.2,364.3l-0.4-0.6l-17.2,7.6c-1,0.4-2.1,0-2.5-0.9c-1-1.5-1.8-3.2-2.5-4.9c-1.3-3-1.7-6.3-1-9.5
	c0.9-2.7,2.9-4.9,5.6-5.9l41.9-19.2l0.3-0.1c1.2-0.5,2.5-0.8,3.8-0.8c1.3,0,2.6,0.3,3.7,0.8c0,1.1,0,2.3,0.1,3.4
	c-1.2-0.8-2.6-1.2-4-1.2c-0.9,0-1.7,0.2-2.5,0.5l-0.3,0.1c-2.1,1.3-3.5,3.5-3.8,6c-0.5,3.7,0,7.6,1.7,11l0.3,0.8
	c0.4,1-0.1,2.1-1.1,2.5l-19.9,8.8l0.7,1c1.9,2.8,3.3,5.8,4.3,9l-2.8,1.1C107.7,370.1,106.2,367,104.2,364.3z"/>
<path class="st1" d="M560.6,391C523.5,484.1,436,547.4,335.9,553.6c-0.2,0-0.5,0.1-0.6,0.3L320,569l-15.2-15.1
	c-0.2-0.2-0.4-0.3-0.6-0.3c-100-6.2-187.5-69.5-224.7-162.6l-1.5-3.7l57.7-22.2c1.5-0.6,3.1-0.1,4,1.2v0.1c0.6,1,1.4,1.9,2.2,2.7
	c0.5,1.5,1,3,1.5,4.5c-2.5-1.1-4.6-3-6-5.3l-0.2-0.3l0,0c-0.1-0.2-0.4-0.3-0.7-0.2l0,0l-4.1,1.6l-1.8,0.8l0.3,0.9l0.4,0.9
	c1.7,4.2,3.5,8.3,5.5,12.3l0.9,1.8l1.9-0.7l7.6-2.7c0.4,0.9,0.9,1.8,1.3,2.7l-7.5,2.7l-1.9,0.7c0.3,0.6,0.6,1.2,0.9,1.7
	c15.2,28.9,37.2,53.6,64,72.3c30.5,21.3,66.3,33.7,103.4,35.9l3.1,3.1c-38.8-1.7-76.4-14.4-108.3-36.6c-33.3-23.1-59-55.5-74.1-93.1
	l-0.3-0.9l-46,17.6l0.3,0.9c36.9,92.6,124.1,155.3,223.6,160.8l13.5,13.3l0.7,0.6l14.2-14.1c99.4-5.5,186.7-68.2,223.6-160.7
	l0.3-0.9l-46-17.7l-0.3,0.9c-15.1,37.6-40.8,70-74.1,93.1c-31.9,22.2-69.5,34.9-108.4,36.6l3.2-3.2c37.1-2.2,72.9-14.6,103.4-35.9
	c26.8-18.6,48.7-43.4,64-72.3l0.9-1.7l-1.9-0.7l-7.5-2.7c0.4-0.9,0.9-1.8,1.3-2.7l7.6,2.7l1.9,0.7l0.9-1.8c2-4,3.8-8.2,5.5-12.3
	l0.4-0.9l0.3-0.9l-1.8-0.7l-4.1-1.6l0,0c-0.2-0.1-0.5,0-0.7,0.2l0,0l-0.2,0.3c-1.4,2.3-3.5,4.2-6,5.3c0.5-1.5,1-2.9,1.5-4.5
	c0.9-0.8,1.6-1.8,2.3-2.8v-0.1c0.9-1.3,2.5-1.9,4-1.2l57.7,22.2L560.6,391z"/>
<path class="st1" d="M321.2,535.2c0.4,0,0.8,0.3,0.8,0.8c0,0,0,0.1,0,0.1v1.8c0,0.4-0.3,0.8-0.7,0.8c0,0,0,0,0,0l-9-0.1
	c-0.4,0-0.8-0.3-0.9-0.8V536c0-0.4,0.3-0.8,0.7-0.9c0.1,0,0.1,0,0.2,0h1.6l0.3-16.9h-1.8c-0.4,0-0.8-0.3-0.8-0.8c0,0,0-0.1,0-0.1
	v-1.8c0-0.4,0.3-0.8,0.7-0.8c0,0,0,0,0.1,0l9.3,0.1c0.4,0,0.8,0.3,0.9,0.8v1.9c0,0.4-0.3,0.8-0.7,0.9c-0.1,0-0.1,0-0.2,0h-1.9
	l-0.3,16.9H321.2z"/>
<path class="st1" d="M303.8,515.5l-2.7,21.7c-0.1,0.9-0.5,1-1.1,0.9l-2.9-0.4c-0.6-0.1-1.1-0.4-1.4-0.9l-8.6-14.9H287l-1.7,13.3
	c-0.1,0.8-0.5,1-1.2,0.9l-3.2-0.4c-0.8-0.1-1.1-0.3-1-1.1l2.7-21.8c0.1-0.9,0.5-1,1.3-0.9l2.9,0.4c0.6,0,1.1,0.4,1.3,0.9l8.6,15h0.1
	l1.7-13.5c0.1-0.7,0.5-0.9,1.2-0.9l3.4,0.4C303.9,514.4,303.9,514.9,303.8,515.5z"/>
<path class="st1" d="M254.7,513.7l3.3,2.9c2.3,2,3.4,4.3,2.5,7.3c-1.4,4.8-6.1,6.4-10.7,5c-2.4-0.7-4.6-1.8-6.7-3.3
	c-0.5-0.3-0.6-0.6-0.5-0.9c0.1-0.2,0.2-0.4,0.3-0.5l1.7-2.4c0.2-0.3,0.5-0.5,0.9-0.4c0.2,0.1,0.4,0.2,0.5,0.3c1.5,1.1,3.1,2,4.9,2.6
	c1.4,0.4,3.4,0.2,3.9-1.4c0.4-1.3-0.4-2.2-1.3-3l-3.9-3.4c-2.2-1.7-3.1-4.5-2.3-7.2c1.3-4.2,6.3-5.3,10.2-4.2
	c2.3,0.6,4.4,1.8,6.2,3.3c0.5,0.4,0.6,0.7,0.5,1c-0.1,0.2-0.2,0.3-0.3,0.5l-1.8,2.3c-0.3,0.4-0.5,0.5-0.8,0.4
	c-0.2-0.1-0.4-0.2-0.5-0.3c-1.2-1.1-2.7-1.9-4.2-2.4c-1.3-0.4-3-0.3-3.5,1.2C252.9,512,254,513.1,254.7,513.7z"/>
<path class="st1" d="M235.1,519.7c0.4,0.2,0.6,0.6,0.5,1c0,0,0,0.1,0,0.1l-0.7,1.7c-0.1,0.4-0.6,0.6-1,0.5c0,0,0,0,0,0l-8.3-3.3
	c-0.4-0.1-0.7-0.6-0.5-1c0,0,0,0,0,0l0.7-1.7c0.1-0.4,0.5-0.7,1-0.6c0.1,0,0.1,0,0.2,0.1l1.5,0.6l6.4-15.7l-1.7-0.7
	c-0.4-0.2-0.6-0.6-0.5-1c0,0,0-0.1,0-0.1l0.7-1.7c0.1-0.4,0.6-0.6,1-0.5c0,0,0,0,0,0l8.7,3.5c0.4,0.1,0.7,0.6,0.5,1c0,0,0,0,0,0
	l-0.7,1.7c-0.1,0.4-0.5,0.7-1,0.6c-0.1,0-0.1,0-0.2-0.1l-1.7-0.7l-6.4,15.7L235.1,519.7z"/>
<path class="st1" d="M209.2,490c-0.6-0.3-0.7-0.8-0.4-1.3l1.2-2.3c0.2-0.4,0.6-0.6,1-0.5c0.1,0,0.1,0.1,0.2,0.1l15,7.8l1.6,0.8
	c0.6,0.3,0.6,0.6,0.4,1v0.1l-1.5,2.3c-0.4,0.6-0.9,0.5-1.5,0.2l-5.4-2.8l-8.7,16.5c-0.4,0.7-0.5,0.7-1.1,0.4l-3.5-1.8
	c-0.7-0.3-0.7-0.5-0.3-1.1l8.7-16.6L209.2,490z"/>
<path class="st1" d="M202.9,480.7l-3-1.9c-0.4-0.3-1.1-0.3-1.5,0.1L179.3,493c-0.1,0.1-0.2,0.2-0.3,0.3c-0.2,0.2-0.1,0.5,0.1,0.7
	c0,0,0,0,0.1,0l3.3,2.1c0.4,0.3,1,0.2,1.3-0.1l3.5-2.7l1,0.7l5.1,3.3l1.1,0.7l-1,4.1c-0.2,0.6,0,1.3,0.6,1.5l3.3,2.1
	c0.3,0.2,0.7,0.2,0.9-0.1c0,0,0-0.1,0.1-0.1c0.1-0.2,0.2-0.3,0.2-0.5l5-23C203.6,481.5,203.4,481,202.9,480.7z M197.4,486.8
	l-1.9,6.9l-4.8-3.1l5.6-4.5c0.6-0.5,1.2-0.9,1.6-1.3l0,0C197.8,485.4,197.6,486,197.4,486.8L197.4,486.8z"/>
<path class="st1" d="M174.3,478.5l-2.3-4.6c-1.4-2.4-1.1-5.4,0.6-7.5c2.8-3.4,7.8-2.6,11,0c1.8,1.4,3.4,3.3,4.5,5.3
	c0.3,0.5,0.3,0.9,0.1,1.1c-0.1,0.1-0.3,0.2-0.4,0.3l-2.5,1.4c-0.4,0.2-0.7,0.2-0.9,0c-0.2-0.1-0.3-0.3-0.4-0.5
	c-0.7-1.4-1.8-2.7-3-3.8c-1.1-0.9-2.7-1.4-3.7-0.2c-0.7,0.9,0,2.3,0.4,3.1l2,3.8c1.3,2.7,1.5,5.2-0.4,7.7c-3.2,3.9-8.1,3.6-11.8,0.7
	c-1.9-1.5-3.6-3.4-4.9-5.5c-0.3-0.5-0.3-0.8-0.1-1c0.1-0.1,0.3-0.3,0.5-0.4l2.5-1.6c0.3-0.2,0.7-0.2,1,0c0.2,0.1,0.3,0.3,0.4,0.5
	c0.9,1.6,2.1,3,3.6,4.2c1.1,0.9,3.1,1.5,4.1,0.2C175.1,480.8,175.1,479.5,174.3,478.5z"/>
<path class="st1" d="M150.5,463.5c0.3,0.3,0.4,0.9,0,1.2c0,0-0.1,0.1-0.1,0.1l-1.9,1.8c-0.3,0.4-0.9,0.4-1.3,0.1
	c-0.1-0.1-0.1-0.1-0.2-0.2l-9-9.7c-0.5-0.5-0.6-0.9,0-1.6l16.3-14.8c0.3-0.4,0.9-0.4,1.2-0.1c0,0,0.1,0.1,0.1,0.1l2.4,2.6
	c0.5,0.6,0.5,0.9,0,1.5L144.5,457L150.5,463.5z"/>
<path class="st1" d="M133.2,445.7c0.3,0.4,0.2,0.9-0.1,1.1c0,0-0.1,0-0.1,0.1l-1.5,1.1c-0.3,0.3-0.8,0.2-1.1-0.1c0,0,0,0,0,0l-5.5-7
	c-0.3-0.3-0.3-0.9,0.1-1.1l1.5-1.1c0.3-0.3,0.8-0.3,1.1,0c0,0,0.1,0.1,0.1,0.2l1,1.3l13.5-10.3l-1.2-1.5c-0.3-0.4-0.2-0.9,0.1-1.1
	c0,0,0.1,0,0.1-0.1l1.5-1.1c0.3-0.3,0.8-0.2,1.1,0.1c0,0,0,0,0,0l5.7,7.4c0.3,0.3,0.3,0.9-0.1,1.1l-1.5,1.1c-0.3,0.3-0.8,0.3-1.1,0
	c0,0-0.1-0.1-0.1-0.2l-1.1-1.5l-13.5,10.3L133.2,445.7z"/>
<path class="st1" d="M123,411.7l-11.5,7c-0.4,0.3-1,0.3-1.3-0.1c-0.1-0.1-0.1-0.2-0.2-0.3l-1.7-2.7c-0.4-0.7-0.5-1.1,0.3-1.5
	l18.8-11.5c0.8-0.5,1.1-0.2,1.5,0.4l1.5,2.4c0.3,0.5,0.4,1.1,0.1,1.6l-6.4,16l0,0l11.7-7c0.7-0.4,1.1-0.2,1.4,0.4l1.8,2.9
	c0.5,0.8,0.1,1.1-0.4,1.3l-18.8,11.5c-0.8,0.5-1.1,0.2-1.5-0.3l-1.5-2.5c-0.3-0.5-0.4-1.1-0.1-1.7L123,411.7L123,411.7z"/>
<path class="st1" d="M335.4,520.6c0.1,1.1,1.5,1.7,2.4,2l4.1,1.5c2.8,1,4.8,2.7,5,5.9c0.4,5-3.4,8.2-8.1,8.5c-2.5,0.2-5-0.1-7.4-0.7
	c-0.6-0.1-0.8-0.4-0.8-0.7c0-0.2,0-0.4,0.1-0.6l0.7-2.9c0.1-0.3,0.2-0.7,0.7-0.7c0.2,0,0.4,0,0.6,0.1c1.8,0.5,3.7,0.8,5.5,0.6
	c1.5-0.1,3.2-1,3.1-2.7c-0.1-1.3-1.2-1.9-2.3-2.3l-4.8-1.8c-2.6-0.8-4.5-3.1-4.8-5.9c-0.4-4.4,3.9-7.2,8-7.6c2.4-0.2,4.7,0.1,7,0.8
	c0.6,0.2,0.8,0.4,0.8,0.7c0,0.2,0,0.4-0.1,0.5l-0.9,2.8c-0.1,0.5-0.3,0.7-0.6,0.7c-0.2,0-0.4,0-0.6-0.1c-1.5-0.5-3.2-0.8-4.8-0.7
	C336.8,518.3,335.3,519,335.4,520.6z"/>
<path class="st1" d="M363.6,531.2l1.7-0.3c0.4-0.1,0.9,0.2,1,0.6c0,0,0,0.1,0,0.1l0.3,1.8c0.1,0.4-0.2,0.8-0.6,0.9c0,0,0,0,0,0
	l-8.8,1.5c-0.4,0.1-0.9-0.2-1-0.6l-0.3-1.8c-0.1-0.4,0.1-0.9,0.5-1c0.1,0,0.1,0,0.2,0l1.6-0.3l-2.9-16.7l-1.8,0.3
	c-0.4,0.1-0.9-0.2-1-0.7c0,0,0-0.1,0-0.1l-0.4-1.8c-0.1-0.4,0.2-0.8,0.6-0.9c0,0,0,0,0.1,0l9.2-1.6c0.4-0.1,0.9,0.2,1,0.6l0.3,1.8
	c0.1,0.4-0.1,0.9-0.5,1c-0.1,0-0.1,0-0.2,0l-1.9,0.3L363.6,531.2z"/>
<path class="st1" d="M403.9,511.2c-2.3-6.7-7.4-10.6-14.3-8.3c-6.6,2.2-8.9,8.4-6.5,15.5c2.4,7,7.7,10.5,14.3,8.3
	C403.6,524.5,406.4,518.5,403.9,511.2z M396.1,522.1c-3.1,1.1-5.7-0.6-7.4-5.8c-1.6-4.8-0.6-8,2.3-9c3.1-1,5.6,0.5,7.4,5.8
	C400.2,518.4,398.9,521.1,396.1,522.1z"/>
<path class="st1" d="M445.9,502.6c0.4,0.7,0.4,0.8-0.2,1.2l-3.4,2c-0.6,0.4-0.7,0.3-1.1-0.3l-9.7-16l-5.5,3.2
	c-0.6,0.4-1,0.2-1.3-0.4l-1.3-2.2c-0.3-0.3-0.2-0.8,0.2-1.1c0.1,0,0.1-0.1,0.2-0.1l14.6-8.6l1.5-0.9c0.5-0.3,0.9-0.2,1.1,0.2
	l0.1,0.1l1.2,2.5c0.3,0.6,0,1-0.6,1.3l-5.3,3.1L445.9,502.6z"/>
<path class="st1" d="M463.6,487.4l1.3-1c0.4-0.3,0.9-0.2,1.2,0.1c0,0,0,0.1,0.1,0.1l1.1,1.5c0.3,0.3,0.2,0.8-0.1,1.1c0,0,0,0-0.1,0
	l-7.2,5.3c-0.3,0.3-0.8,0.2-1.1-0.1l-1.1-1.5c-0.3-0.3-0.3-0.8,0-1.1c0,0,0.1-0.1,0.2-0.1l1.3-0.9L449,477.1l-1.5,1.1
	c-0.4,0.3-0.9,0.2-1.2-0.1c0,0,0-0.1-0.1-0.1l-1.1-1.5c-0.3-0.3-0.2-0.8,0.1-1.1c0,0,0,0,0.1,0l7.5-5.5c0.3-0.3,0.9-0.3,1.2,0.1
	l1.1,1.5c0.3,0.3,0.3,0.8,0,1.1c0,0-0.1,0.1-0.2,0.1l-1.5,1.1L463.6,487.4z"/>
<path class="st1" d="M474,453c-0.3-0.6-0.1-1.3,0.4-1.6l1.8-1.6c0.5-0.5,0.9-0.5,1.3,0l15.9,15.4l0.1,0.1c0.4,0.3,0.4,0.8,0.2,1.2
	c0,0.1-0.1,0.1-0.2,0.2l-2.6,2.4c-0.7,0.6-1.1,0.4-1.8-0.3l-8.4-8.4l0,0l4.7,12.7c0.2,0.5,0.1,1-0.3,1.3l-0.9,0.9
	c-0.4,0.5-1,0.6-1.6,0.4l-13-5l0,0l8.2,9.1c0.7,0.7,0.4,1.1-0.1,1.6l-2.1,1.9c-0.6,0.5-1.1,0.6-1.6,0l-0.1-0.1l-14.3-16.5
	c-0.5-0.6-0.5-1.1,0-1.5l1.8-1.7c0.4-0.5,1.1-0.6,1.7-0.3l16.4,6.3l0,0L474,453z"/>
<path class="st1" d="M501.1,440.7l-9.3-7.6c-0.5-0.4-0.4-0.9,0-1.3l2.2-2.7c0.4-0.5,0.8-0.7,1.3-0.2l9.5,7.9c6,5,6.2,10.2,1.9,15.3
	c-4.6,5.5-9.7,5.5-15.3,0.8l-9.6-7.9c-0.5-0.4-0.4-0.9,0-1.3l2.2-2.7c0.4-0.5,0.8-0.7,1.3-0.2l9.2,7.6c4.2,3.5,6.7,3,8.7,0.6
	C505.4,446.4,505.3,444.1,501.1,440.7z"/>
<path class="st1" d="M510,406.8c-0.4-0.5-0.4-1.2,0-1.7l1.3-2.1c0.4-0.6,0.7-0.7,1.3-0.4l19.5,10.7h0.1c0.4,0.2,0.7,0.6,0.5,1.1
	c0,0.1-0.1,0.2-0.2,0.3l-1.9,2.9c-0.5,0.8-1,0.7-1.8,0.2l-10.3-6l0,0l7.9,11.1c0.3,0.4,0.3,0.9,0,1.3l-0.7,1.1
	c-0.2,0.7-0.8,1.1-1.5,1l-13.9-1.5l0,0l10.3,6.7c0.8,0.5,0.7,0.9,0.3,1.6l-1.5,2.4c-0.4,0.7-0.9,0.9-1.5,0.5h-0.1l-18.1-12.3
	c-0.7-0.5-0.7-0.9-0.4-1.5l1.3-2.1c0.3-0.6,0.9-0.9,1.6-0.7l17.4,1.8l0,0L510,406.8z"/>
<path class="st1" d="M423.2,497.9c-0.8-1.7-2.2-3.1-3.9-3.9c-2.4-1-5.3-0.5-8.9,1.2l-4.9,2.3c-0.7,0.3-0.9,0.6-0.5,1.4l9.3,19.8
	c0.3,0.7,0.8,0.8,1.3,0.5l3.2-1.5c0.7-0.3,0.8-0.7,0.5-1.3l-3-6.5c0.4-0.1,1.3-0.5,1.8-0.7C423,507.1,425.6,502.9,423.2,497.9z
	 M416.3,505.5c-0.3,0.1-1.3,0.6-1.7,0.8l-3.2-6.8l1.5-0.7c2.4-1.1,4.2-0.7,5.3,1.7C419.4,502.8,418.7,504.4,416.3,505.5L416.3,505.5
	z"/>
<path class="st0" d="M124,350.5c-1.5-3.7-1.9-7.7-1.3-11.6c0-0.3,0.1-0.5,0.1-0.8l0.4-1.9l-35.9,16.5c-1.9,0.7-3.3,2.1-3.9,4
	c-1.1,3.8,1.2,8.7,2.3,10.7l0.4,0.8l38.2-16.8L124,350.5z"/>
<path class="st2" d="M516.1,350.5c1.5-3.7,1.9-7.7,1.3-11.6c0-0.3-0.1-0.5-0.1-0.8l-0.4-1.9l35.9,16.4c1.9,0.7,3.3,2.1,3.9,4
	c1.1,3.8-1.2,8.7-2.3,10.7l-0.4,0.8l-38.1-16.8L516.1,350.5z"/>
<path class="st0" d="M500.5,143.1l-64.6-58.9c-15.2,10-35.1,16-56.9,16c-22.8,0-43.5-6.6-58.9-17.4c-15.4,10.8-36.1,17.4-58.9,17.4
	c-21.8,0-41.7-6-56.9-16l-64.6,58.9c0,0,31.2,29.6,31.4,53.5c0.2,24-7,43.4-15.8,67.9c-4.4,13.1-7.4,26.6-8.9,40.3
	c-0.4,3.3-0.7,6.7-0.9,10.2c-0.2,3.2-0.3,6.4-0.3,9.6c-0.1,19.9,3.3,41.1,13.3,59.4c1.5,2.8,3.2,5.4,5,8
	c5.2,7.5,47.5,77.4,137.3,86.6l0.3,0.3l19,19l19-19l0,0l0.3-0.3c89.8-9.1,132-79.1,137.3-86.6c1.8-2.6,3.4-5.3,5-8
	c10-18.3,13.3-39.5,13.3-59.4c0-3.2-0.1-6.4-0.3-9.6c-0.2-3.5-0.5-6.9-0.9-10.2c-1.5-13.7-4.4-27.3-8.9-40.3
	c-8.7-24.5-15.9-43.9-15.7-67.9C469.4,172.6,500.5,143.1,500.5,143.1z"/>
<path class="st1" d="M276.8,200.6l38.7-82.3c-1.4-3.1,1-7,4-7c3,0,5.8,3.9,4.4,7l39.1,82c6.6,3.2,9.5,7.3,9.2,10
	c-0.4,2.7-2.3,4.9-4.8,5.7c0.1,14.9-0.5,67.6-0.3,97.6c3.3,0.7,3.3,4.2,3,15.6c-0.2,10.9,0.7,14.5-6.5,14.5c-1,0-2.9-0.1-2.9-0.1
	v-3.7c-0.1-1.8-0.1-2.4-1.1-2.8c-3-1.2-6.2-2.3-9.7-3.6c-2.4-0.9-76.5-27.3-76.5-27.3c-1.9-0.6-3.2-2.3-3.4-4.3c0-0.3,0-3.2,0-4.1
	c0-4,0-6.4,0-10.5c0-2.7,1.8-3.7,3.4-3.5c0.1,0,0.1-0.3,0-0.4c0-9.8-0.1-60.8-0.1-66.1c-1.9-0.5-3.5-1.7-4.4-3.5
	C267.4,209.9,269.1,204.7,276.8,200.6z"/>
<path class="st0" d="M305.6,294.2c-16.6-5.7-24-8.8-24.2-13.6c-0.1-3-0.5-15.3-0.2-18.5l-0.3-46c0-1.3,2.2-2.2,4.3-2.7
	s14.1-3.2,34.5-3.2c20.4,0,34.7,2.4,38.3,3.9c0.8,0.3,1.6,0.7,2.4,1.2v4c-3.5-0.5-16.6-2.3-22.3-2.7c-2.6-0.2-6-0.3-9.3-0.4
	c0-0.8-0.6-1.4-1.4-1.4c-5.7-0.3-11.4-0.3-17,0c-0.4,0-0.8,0.2-1,0.5c-0.3,0.3-0.4,0.7-0.4,1.1l1,17.6h-0.8
	c-3.6,0.3-18,2.3-18.9,2.6c-1.3,0.3-1.6,0.7-1.5,1.2c0.2,0.8,1.2,0.5,2.3,0.4c7.1-0.8,13.6-1.2,19.1-1.5l0.1,2.8
	c0,0.8,0.7,1.4,1.5,1.4l0,0c4.8-0.3,9.5-0.3,14.3,0c0.8,0,1.5-0.6,1.6-1.4l0.1-2.8c2.3,0.1,3.5,0.2,3.5,0.2
	c10.3,0.9,23.6,2.8,29.4,6.3v4.1c-3.4-0.7-12-2.5-15.2-2.8c-2.2-0.2-4.3-0.2-6.5,0c-0.7,0.1-1.2,0.5-1.1,1c0.1,0.5,0.7,0.8,1.5,0.9
	s13.6,0.6,21.4,5.9v4.2c-4.5-0.9-19.4-3.8-29.7-4.3c-10.6-0.3-21.2,0.1-31.7,1.2c-1.3,0.2-2,0.6-1.9,1.3s0.3,1,2.2,0.9
	c1.3-0.1,25.9-1,38.8,0.9c10.5,1.5,17.7,3.3,22.4,5.5v5.3c-4.2-0.9-13.3-2.7-18-3c-9.7-0.8-15.8-0.7-16.8-0.7s-1.3,0.4-1.3,1
	c0,0.6,0.7,0.7,1.3,0.7c5.5,0.2,10.9,0.6,16.3,1.5c5.2,0.8,13.2,2,18.5,4.8v5.3c-2.8-0.3-8.2-0.9-10.5-1c-2.2-0.1-4.5-0.1-6.7,0.2
	c-0.6,0.1-1,0.6-0.9,1c0.1,0.5,0.6,0.8,1.1,0.7c3,0.1,5.9,0.4,8.8,0.9c2.9,0.5,5.7,1.3,8.3,2.5c0,0,0,5.2,0,7c0,0.2-6-1.9-11.8-2.2
	c-4.8-0.3-9.6-0.3-14.4,0c-0.4,0-1.5,0.2-1.5,1.2s1.2,0.9,1.8,0.9c3,0.1,5.5,0,10.9,0.5c5.2,0.5,10.2,1.6,15.1,3.4c0,2.1,0,4,0,6.7
	c0,0.1-3.3-0.9-8.5-1.6c-2.4-0.4-4.8-0.6-7.3-0.6c-0.9,0.1-1.8,0.3-1.9,1.1c0,1.2,2.1,1.3,2.9,1.3s3.1,0.3,7.1,0.9
	c2.6,0.4,5.2,1.1,7.7,1.9c0,5.5,0,9.9,0,9.9C344.7,307.4,322.9,300.7,305.6,294.2z"/>
<path class="st0" d="M320.1,127.2l4.3,9.2c-1.9,0.1-3.8,0.3-5.7,0.7c-1,0.2-1.2,0.6-1.2,0.9c0,0.3,0.4,0.8,1.4,0.8
	c2.1,0,5.2,0.2,6.7,0.3c0.5,1,0.9,2,1.3,3c-1.1,0.3-2.7,0.8-3.2,1c-0.7,0.3-1.4,0.5-1.3,1.1s0.8,0.5,1.4,0.6c1.5,0.2,3,0.3,4.5,0.3
	l2.1,4.6c0.5,1.1-1,1.3-2.3,1.3c-1.5,0.1-5.3,0.1-7.1,0.3c-0.7,0.1-1,0.5-1,0.9s0.5,0.7,1.2,0.8c2.5,0.1,5,0.4,7.5,0.7
	c1.4,0.2,2.7,0.6,4,1c0.5,1.1,1,2.1,1.5,3.1c0.3,0.6-0.5,0.9-1.1,0.9c-1,0.1-5.3-0.2-7.6,0c-1,0.1-1.2,0.3-1.2,0.9s0.2,0.6,1.2,0.8
	c1.8,0.3,5.6,0.5,6.8,0.6c1.4,0.2,2.8,0.6,4.2,1.2l2.1,4.5c0.3,0.7-0.1,0.9-0.6,1c-0.7,0-8.6,0.1-9.2,0.2c-0.7,0-1.7,0.3-1.8,0.9
	s0.6,1.2,2.4,1.3c1.8,0.1,8.7,0.5,12.3,3.1l2.8,6c-2.7-0.3-12-1-16.3-0.9c-3.7,0.1-5.2,0-5.3,0.7c-0.1,0.7,0.6,1.1,2.9,1.3
	s14.4,0.9,20.8,3.4l3.4,7.1c-5.3-1-10.6-1.7-16-2c-1.8,0-2.5,0.3-2.5,1.1c0,0.8,1.7,0.9,2.8,1c6,0.7,11.9,2,17.7,3.9l0.8,1.8
	c-10.9-2-22-3.1-33.1-3.3c-10.8,0.1-21.6,1.3-32.1,3.5C290.6,190.4,309.8,149.4,320.1,127.2z"/>
<path class="st2" d="M346.7,311.6l-8.4-2.5c-0.2-0.1-0.5,0-0.6,0.2c0,0.1,0,0.1,0,0.2c0,5.8,0,8.8,0,14.4c0,0.4,0.3,0.7,0.6,0.8
	l8.4,2.9c0.2,0.1,0.5,0,0.6-0.2c0-0.1,0-0.1,0-0.2c0-5.6,0-8.7,0-14.8C347.3,312,347,311.7,346.7,311.6z"/>
<path class="st2" d="M332.7,307.3c-3.4-1-5-1.6-8.4-2.7c-0.2-0.1-0.5,0-0.6,0.2c0,0.1,0,0.1,0,0.2c0,5.6,0,8.4,0,13.9
	c0,0.4,0.3,0.7,0.6,0.8l8.4,2.9c0.3,0.1,0.6,0,0.6-0.4c0-5.6,0-8.5,0-14.3C333.3,307.7,333,307.5,332.7,307.3z"/>
<path class="st2" d="M304.7,298.1c-3.4-1.2-5-1.8-8.4-3c-0.3-0.1-0.6,0-0.6,0.3c0,5.3,0,8.2,0,13.7c0,0.4,0.3,0.7,0.6,0.8l8.4,3
	c0.3,0.1,0.6,0,0.6-0.4c0-5.5,0-8.3,0-13.7C305.2,298.5,305,298.2,304.7,298.1z"/>
<path class="st2" d="M290.6,293c-3.4-1.2-5-1.9-8.4-3.1c-0.3-0.1-0.6,0-0.6,0.4v13.9c0,0.4,0.3,0.7,0.6,0.8c3.4,1.1,5,1.7,8.4,2.9
	c0.3,0.1,0.6,0,0.6-0.4c0-5.5,0-8.3,0-13.7C291.2,293.5,291,293.2,290.6,293z"/>
<path class="st2" d="M318.7,302.9c-3.4-1.1-5-1.7-8.4-2.8c-0.3-0.1-0.6,0-0.6,0.4c0,5.3,0,8.2,0,13.7c0,0.4,0.3,0.7,0.6,0.8l8.4,3
	c0.3,0.1,0.6,0,0.6-0.4c0-5.5,0-8.4,0-13.8C319.2,303.3,319,303,318.7,302.9z"/>
<path class="st2" d="M341.5,225.6c2.9-0.1,5.8,0.1,8.6,0.5c3.3,0.4,8.1,1.5,10.3,2v-3.8c-4.5-1.9-14.9-3.7-20.5-4.5
	c-3.5-0.5-7.4-0.8-11.2-1.1l-0.8,14.9l3.3,0.1c2.5,0.1,5.1,0.3,7.7,0.5c7.3,0.7,14.5,2,21.7,3.7l-0.1-5.3c-5.7-4.7-18.5-5-19.2-5
	s-1.5-0.2-1.5-0.9C339.8,225.9,340.8,225.7,341.5,225.6z"/>
<path class="st0" d="M281.1,210.1c1.7-0.4,14.7-5.1,38.5-5.1c23.9,0,38,5.1,39.7,5.9c1.7,0.8,3.6,1.3,4.4,0c0.6-1.5,0-3.2-1.5-4
	c-5.2-3.3-23.5-7.5-42.6-7.3c-19.2,0.2-38.4,4.4-41,5.5c-2.7,1.1-3.8,2.7-2.9,4.3C277,212,279.4,210.6,281.1,210.1z"/>
<path class="st2" d="M360.6,315.7l-8.3-2.5c-0.2-0.1-0.5,0-0.6,0.3c0,0.1,0,0.1,0,0.2c0,6.2,0,9.3,0,15c0,0.4,0.3,0.7,0.6,0.8
	l8.4,2.9c0.2,0.1,0.5,0,0.6-0.2c0-0.1,0-0.1,0-0.2v-15.4C361.3,316.2,361,315.9,360.6,315.7z"/>
<path class="st2" d="M314.8,238c4.4-0.1,9.8,0,9.8,0l1-19.2c-4.6-0.3-12,0.1-12,0.1L314.8,238z"/>
<path class="st1" d="M258,173c-2.4-0.3-4.9,0.3-6.8,1.7c-2.2,1.3-3.9,3.3-4.7,5.7c2.4,0.3,4.8-0.3,6.8-1.7
	C255.5,177.4,257.1,175.4,258,173z"/>
<path class="st1" d="M248,138.1c0.1-2.6-0.6-5.2-2.1-7.4c-1.2-2.2-3.2-3.9-5.5-4.8c-0.1,2.6,0.6,5.2,2.1,7.4
	C243.7,135.5,245.6,137.2,248,138.1z"/>
<path class="st1" d="M248.1,147.2c-0.2,2.4,0.3,4.8,1.5,6.8c1,2,2.7,3.7,4.8,4.6c0.2-2.4-0.3-4.7-1.5-6.8
	C251.9,149.8,250.2,148.1,248.1,147.2z"/>
<path class="st1" d="M251.8,141.3c1.4-2.3,2-4.9,1.7-7.6c0-2.6-0.9-5.2-2.5-7.3c-1.4,2.3-2,4.9-1.8,7.6
	C249.3,136.7,250.2,139.2,251.8,141.3z"/>
<path class="st1" d="M255.4,155.9c2.3-1.2,4-3.1,5-5.4c1.2-2.3,1.7-5,1.3-7.7c-2.3,1.2-4,3.1-5,5.4
	C255.5,150.6,255,153.3,255.4,155.9z"/>
<path class="st1" d="M246.1,143.9c1.6,1.6,3.7,2.5,5.9,2.6c-0.5-2.3-1.7-4.3-3.5-5.8c-1.6-1.6-3.7-2.5-5.9-2.6
	C243.2,140.4,244.4,142.4,246.1,143.9z"/>
<path class="st1" d="M254.1,150.1c1.8-1.9,2.9-4.3,3.2-6.9c0.5-2.6,0.2-5.3-0.9-7.7c-1.8,1.9-2.9,4.3-3.2,6.9
	C252.6,145,252.9,147.7,254.1,150.1z"/>
<path class="st1" d="M262.8,164.1c-2.4-0.3-4.9,0.3-6.9,1.7c-2.2,1.3-3.9,3.3-4.7,5.7c2.4,0.3,4.9-0.3,6.8-1.7
	C260.2,168.5,261.9,166.5,262.8,164.1z"/>
<path class="st1" d="M259.1,161.6c1.6-2.1,2.6-4.6,2.7-7.2c-2.4,0.6-4.5,2.1-5.9,4.2c-1.6,2.1-2.6,4.6-2.7,7.2
	C255.7,165.1,257.8,163.6,259.1,161.6z"/>
<path class="st1" d="M248.2,173.1c1.8-1.9,2.9-4.3,3.2-7c0.5-2.6,0.2-5.3-1-7.7c-1.8,1.9-2.9,4.3-3.2,6.9
	C246.7,168,247,170.7,248.2,173.1z"/>
<path class="st1" d="M247.8,181.9c-2.4,0.4-4.7,1.7-6.2,3.6c2.1,1.2,4.6,1.6,7,1c2.4-0.4,4.7-1.7,6.2-3.6
	C252.7,181.7,250.2,181.3,247.8,181.9z"/>
<path class="st1" d="M197.3,171.5c-0.9-2.4-2.5-4.4-4.7-5.7c-2-1.4-4.4-2-6.8-1.7c0.9,2.4,2.6,4.4,4.8,5.7
	C192.5,171.2,194.9,171.8,197.3,171.5z"/>
<path class="st1" d="M202.1,180.4c-0.9-2.4-2.5-4.4-4.7-5.7c-2-1.4-4.4-2-6.9-1.7c0.9,2.4,2.5,4.4,4.7,5.7
	C197.2,180.2,199.7,180.8,202.1,180.4z"/>
<path class="st1" d="M206.9,185.5c-1.6-1.9-3.8-3.2-6.2-3.6c-2.4-0.6-4.9-0.2-7,1c1.6,1.9,3.8,3.2,6.2,3.6
	C202.3,187.1,204.8,186.8,206.9,185.5z"/>
<path class="st1" d="M245.3,178.7c1.2-2.4,1.6-5.1,1.2-7.7c-2.2,1.2-4,3.2-4.9,5.6c-1.2,2.4-1.6,5.1-1.2,7.7
	C242.7,183,244.4,181,245.3,178.7z"/>
<path class="st1" d="M200.8,190.7c2,1.4,4.5,1.9,6.9,1.5c2.5-0.2,4.7-1.4,6.4-3.2c-2-1.4-4.5-1.9-6.9-1.5
	C204.8,187.8,202.5,188.9,200.8,190.7z"/>
<path class="st1" d="M214.3,187.8c1.9,1.5,4.3,2.3,6.7,2.2c-0.7-2.5-2.3-4.6-4.4-6.1c-1.9-1.5-4.3-2.3-6.7-2.2
	C210.6,184.2,212.1,186.4,214.3,187.8z"/>
<path class="st1" d="M202,171c-0.4,2.6,0,5.3,1.2,7.7c0.9,2.4,2.7,4.3,4.9,5.5c0.4-2.6,0-5.3-1.2-7.7C206,174.2,204.3,172.2,202,171
	z"/>
<path class="st1" d="M206.1,133.3c1.5-2.2,2.2-4.8,2.1-7.4c-2.4,0.9-4.3,2.6-5.5,4.8c-1.5,2.2-2.2,4.8-2.1,7.4
	C202.9,137.2,204.9,135.5,206.1,133.3z"/>
<path class="st1" d="M202.4,143.9c1.8-1.5,3-3.6,3.5-5.8c-2.2,0.1-4.3,1-5.8,2.6c-1.8,1.5-3,3.5-3.5,5.8
	C198.8,146.4,200.8,145.5,202.4,143.9z"/>
<path class="st1" d="M240.8,192.2c2.4,0.4,4.9-0.1,6.9-1.5c-1.7-1.8-4-2.9-6.4-3.2c-2.4-0.4-4.9,0.1-6.9,1.5
	C236.1,190.8,238.4,192,240.8,192.2z"/>
<path class="st1" d="M215.8,191.1c-2.4,0.5-4.6,1.9-6.1,3.9c2.2,1.1,4.7,1.3,7,0.6c2.4-0.5,4.5-1.8,5.9-3.7c0.3,0.3,0.7,0.6,1,0.9
	c-3.1,1.8-5.8,4.2-8,7.1l2.3,3.6c1.6-3.7,3.7-7,6.5-10c2.6,2.9,4.6,6.3,6.1,9.9l2.3-3.6c-2.1-2.8-4.6-5.2-7.6-7.1
	c0.3-0.3,0.7-0.6,1-0.9c1.5,1.9,3.6,3.2,5.9,3.7c2.3,0.7,4.8,0.5,7-0.6c-2.9-3.6-7.7-5.1-12.1-3.7c-0.9,0.3-1.7,0.7-2.5,1.2
	c-0.7-0.4-1.4-0.7-2.2-1.1H222l0,0l0,0C220,190.7,217.8,190.6,215.8,191.1z"/>
<path class="st1" d="M193.2,155.9c0.4-2.6-0.1-5.3-1.3-7.6c-1-2.3-2.8-4.3-5-5.4c-0.4,2.6,0.1,5.3,1.3,7.7
	C189.2,152.8,190.9,154.7,193.2,155.9z"/>
<path class="st1" d="M234.3,187.8c2.1-1.5,3.7-3.6,4.4-6c-2.4-0.1-4.8,0.6-6.7,2.2c-2.1,1.5-3.7,3.6-4.4,6.1
	C230,190.1,232.4,189.4,234.3,187.8z"/>
<path class="st1" d="M200.4,173.1c1.1-2.4,1.5-5.1,1-7.7c-0.3-2.6-1.4-5-3.2-6.9c-1.1,2.4-1.5,5.1-1,7.7
	C197.5,168.8,198.6,171.2,200.4,173.1z"/>
<path class="st1" d="M186.8,154.3c0.1,2.6,1,5.2,2.7,7.2c1.4,2.1,3.5,3.6,5.9,4.2c-0.1-2.6-1-5.2-2.7-7.2
	C191.3,156.5,189.2,155,186.8,154.3z"/>
<path class="st1" d="M198.9,154.1c1.2-2,1.8-4.4,1.5-6.8c-2.1,0.9-3.8,2.5-4.8,4.6c-1.2,2-1.8,4.4-1.5,6.8
	C196.2,157.7,197.9,156.1,198.9,154.1z"/>
<path class="st1" d="M199.2,134c0.2-2.6-0.3-5.3-1.7-7.6c-1.6,2.1-2.5,4.7-2.5,7.3c-0.3,2.6,0.3,5.3,1.7,7.6
	C198.3,139.2,199.2,136.7,199.2,134z"/>
<path class="st1" d="M194.5,150.1c1.1-2.4,1.4-5.1,0.9-7.7c-0.3-2.6-1.4-5-3.2-6.9c-1.1,2.4-1.4,5.1-0.9,7.7
	C191.6,145.7,192.7,148.2,194.5,150.1z"/>
<path class="st1" d="M253.2,178.7c-2,1.4-4.4,2-6.8,1.7c0.9-2.4,2.5-4.4,4.7-5.7c2-1.4,4.4-2,6.8-1.7
	C257.1,175.4,255.4,177.4,253.2,178.7z"/>
<path class="st1" d="M254.8,182.9c-1.6,1.9-3.8,3.2-6.2,3.6c-2.4,0.6-4.9,0.2-7-1c1.6-1.9,3.8-3.2,6.2-3.6
	C250.2,181.3,252.7,181.7,254.8,182.9z"/>
<path class="st1" d="M254.4,158.6c-2.1-0.9-3.7-2.5-4.8-4.5c-1.2-2-1.8-4.4-1.5-6.8c2.1,0.9,3.8,2.5,4.8,4.6
	C254.1,153.9,254.6,156.2,254.4,158.6z"/>
<path class="st1" d="M255.9,158.6c1.4-2.1,3.5-3.6,5.9-4.2c-0.1,2.6-1,5.2-2.7,7.2c-1.4,2.1-3.5,3.6-5.9,4.2
	C253.3,163.1,254.3,160.6,255.9,158.6z"/>
<path class="st1" d="M250.4,158.4c1.1,2.4,1.5,5.1,1,7.7c-0.3,2.6-1.4,5-3.2,7c-1.1-2.4-1.5-5.1-1-7.7
	C247.5,162.8,248.6,160.4,250.4,158.4z"/>
<path class="st1" d="M251.2,171.5c0.9-2.4,2.5-4.4,4.7-5.7c2-1.4,4.4-2,6.8-1.7c-0.9,2.4-2.5,4.4-4.7,5.7
	C256.1,171.2,253.6,171.8,251.2,171.5z"/>
<path class="st1" d="M261.7,142.8c0.4,2.6-0.1,5.3-1.3,7.7c-1,2.3-2.8,4.3-5,5.4c-0.4-2.6,0.1-5.3,1.3-7.6
	C257.7,145.9,259.4,144,261.7,142.8z"/>
<path class="st1" d="M256.3,135.5c1.1,2.4,1.4,5.1,0.9,7.7c-0.3,2.6-1.4,5-3.2,6.8c-1.1-2.4-1.4-5.1-0.9-7.7
	C253.4,139.8,254.6,137.4,256.3,135.5z"/>
<path class="st1" d="M251,126.4c1.6,2.1,2.5,4.7,2.5,7.3c0.3,2.6-0.3,5.3-1.7,7.6c-1.6-2.1-2.5-4.6-2.5-7.2
	C249,131.4,249.6,128.7,251,126.4z"/>
<path class="st1" d="M252,146.5c-2.2-0.1-4.3-1-5.9-2.6c-1.8-1.5-3-3.6-3.5-5.8c2.2,0.1,4.3,1,5.9,2.6
	C250.3,142.2,251.5,144.2,252,146.5z"/>
<path class="st1" d="M240.4,125.9c2.4,0.9,4.3,2.6,5.5,4.8c1.5,2.2,2.2,4.8,2.1,7.4c-2.4-0.9-4.3-2.6-5.5-4.8
	C241,131.1,240.3,128.5,240.4,125.9z"/>
<path class="st1" d="M241.6,176.5c1-2.4,2.7-4.3,5-5.5c0.4,2.6,0,5.3-1.2,7.7c-0.9,2.4-2.7,4.3-4.9,5.5
	C240,181.6,240.4,178.9,241.6,176.5z"/>
<path class="st1" d="M241.2,187.5c2.5,0.2,4.7,1.4,6.4,3.2c-2,1.4-4.5,1.9-6.9,1.5c-2.5-0.2-4.7-1.4-6.4-3.2
	C236.4,187.7,238.8,187.1,241.2,187.5z"/>
<path class="st1" d="M232,183.9c1.9-1.5,4.3-2.3,6.7-2.2c-0.7,2.5-2.3,4.6-4.4,6c-1.9,1.5-4.3,2.3-6.7,2.2
	C228.3,187.5,229.8,185.4,232,183.9z"/>
<path class="st1" d="M222,191.4h0.1c0.8,0.3,1.5,0.7,2.2,1.1c0.8-0.4,1.6-0.8,2.5-1.2c4.4-1.4,9.3,0.1,12.1,3.7
	c-2.2,1.1-4.7,1.3-7,0.6c-2.3-0.5-4.4-1.8-5.9-3.7c-0.3,0.3-0.7,0.6-1,0.9c3,1.8,5.6,4.2,7.6,7.1l-2.3,3.6c-1.5-3.6-3.5-7-6.1-9.9
	c-2.7,2.9-4.9,6.3-6.5,10l-2.3-3.6c2.2-2.9,4.9-5.3,8-7.1c-0.3-0.3-0.7-0.6-1-0.9c-1.5,1.9-3.6,3.2-5.9,3.7c-2.3,0.7-4.8,0.5-7-0.6
	c1.5-2,3.6-3.4,6.1-3.9C217.8,190.5,220,190.6,222,191.4L222,191.4L222,191.4z"/>
<path class="st1" d="M216.6,183.9c2.1,1.5,3.7,3.6,4.4,6.1c-2.4,0.2-4.8-0.6-6.7-2.2c-2.1-1.5-3.7-3.6-4.4-6
	C212.3,181.6,214.7,182.4,216.6,183.9z"/>
<path class="st1" d="M214.1,189c-1.7,1.8-3.9,3-6.4,3.2c-2.4,0.4-4.9-0.1-6.9-1.5c1.7-1.8,4-2.9,6.4-3.2
	C209.7,187.1,212.1,187.7,214.1,189z"/>
<path class="st1" d="M208.1,184.2c-2.2-1.2-4-3.2-4.9-5.5c-1.2-2.4-1.6-5.1-1.2-7.7c2.2,1.2,4,3.2,4.9,5.6
	C208.1,178.9,208.5,181.6,208.1,184.2z"/>
<path class="st1" d="M202.6,130.7c1.2-2.2,3.2-3.9,5.5-4.8c0.1,2.6-0.6,5.2-2.1,7.4c-1.2,2.2-3.2,3.9-5.5,4.8
	C200.4,135.5,201.2,132.9,202.6,130.7z"/>
<path class="st1" d="M200,140.7c1.6-1.6,3.6-2.5,5.8-2.6c-0.5,2.3-1.7,4.3-3.5,5.8c-1.6,1.6-3.7,2.5-5.9,2.6
	C197,144.3,198.2,142.2,200,140.7z"/>
<path class="st1" d="M194.1,158.6c-0.2-2.4,0.3-4.7,1.5-6.8c1-2,2.7-3.7,4.8-4.6c0.2,2.4-0.3,4.8-1.5,6.8
	C197.9,156.1,196.2,157.7,194.1,158.6z"/>
<path class="st1" d="M195.3,165.8c-2.4-0.6-4.5-2.1-5.9-4.2c-1.6-2.1-2.6-4.6-2.7-7.2c2.4,0.6,4.5,2.1,5.9,4.2
	C194.3,160.6,195.2,163.1,195.3,165.8z"/>
<path class="st1" d="M198.2,158.4c1.8,1.9,2.9,4.3,3.2,6.9c0.5,2.6,0.2,5.3-1,7.7c-1.8-1.9-2.9-4.3-3.2-6.9
	C196.7,163.5,197,160.8,198.2,158.4z"/>
<path class="st1" d="M195.1,133.7c0-2.6,0.9-5.2,2.5-7.3c1.4,2.3,2,5,1.7,7.6c0,2.6-0.9,5.2-2.5,7.3
	C195.4,139,194.8,136.4,195.1,133.7z"/>
<path class="st1" d="M192.2,135.5c1.8,1.9,2.9,4.3,3.2,6.9c0.5,2.6,0.2,5.3-0.9,7.6c-1.8-1.9-2.9-4.3-3.2-6.9
	C190.8,140.5,191.1,137.9,192.2,135.5z"/>
<path class="st1" d="M186.9,142.8c2.3,1.2,4,3.1,5,5.5c1.2,2.3,1.7,5,1.3,7.6c-2.3-1.2-4-3.1-5-5.4
	C186.9,148.1,186.5,145.4,186.9,142.8z"/>
<path class="st1" d="M185.7,164.1c2.4-0.3,4.9,0.3,6.8,1.7c2.2,1.3,3.9,3.3,4.7,5.7c-2.4,0.3-4.8-0.3-6.8-1.7
	C188.3,168.5,186.6,166.5,185.7,164.1z"/>
<path class="st1" d="M190.5,173c2.4-0.3,4.9,0.3,6.8,1.7c2.2,1.3,3.9,3.3,4.7,5.7c-2.4,0.3-4.9-0.3-6.8-1.7
	C193.1,177.4,191.4,175.4,190.5,173z"/>
<path class="st1" d="M193.8,182.9c2.1-1.2,4.6-1.6,7-1c2.4,0.4,4.7,1.7,6.2,3.6c-2.1,1.2-4.6,1.6-7,1
	C197.5,186.1,195.3,184.8,193.8,182.9z"/>
<path class="st1" d="M382,169.8c2,1.4,4.4,2,6.8,1.7c-0.9-2.4-2.5-4.4-4.7-5.7c-2-1.4-4.4-2-6.8-1.7
	C378.1,166.5,379.8,168.5,382,169.8z"/>
<path class="st1" d="M393.6,171c-0.4,2.6,0,5.3,1.2,7.7c0.9,2.4,2.7,4.3,4.9,5.5c0.4-2.6,0-5.3-1.2-7.7
	C397.5,174.2,395.8,172.2,393.6,171z"/>
<path class="st1" d="M384.7,155.9c0.4-2.6-0.1-5.3-1.3-7.6c-1-2.3-2.8-4.3-5-5.4c-0.4,2.6,0.1,5.3,1.3,7.7
	C380.7,152.8,382.5,154.7,384.7,155.9z"/>
<path class="st1" d="M397.6,133.3c1.5-2.2,2.2-4.8,2.1-7.4c-2.4,0.9-4.3,2.6-5.5,4.8c-1.5,2.2-2.2,4.8-2.1,7.4
	C394.4,137.2,396.4,135.5,397.6,133.3z"/>
<path class="st1" d="M393.9,143.9c1.8-1.5,3-3.5,3.5-5.8c-2.2,0.1-4.3,1-5.8,2.6c-1.8,1.5-3,3.5-3.5,5.8
	C390.3,146.4,392.4,145.5,393.9,143.9z"/>
<path class="st1" d="M386,150.1c1.1-2.4,1.4-5.1,0.9-7.7c-0.3-2.6-1.4-5-3.2-6.9c-1.1,2.4-1.4,5.1-0.9,7.7
	C383.1,145.7,384.2,148.2,386,150.1z"/>
<path class="st1" d="M390.7,134c0.2-2.6-0.3-5.3-1.7-7.6c-1.6,2.1-2.5,4.7-2.5,7.3c-0.3,2.6,0.3,5.3,1.7,7.6
	C389.8,139.2,390.7,136.7,390.7,134z"/>
<path class="st1" d="M437.7,143.9c1.6,1.6,3.7,2.5,5.9,2.6c-0.5-2.3-1.7-4.3-3.4-5.8c-1.6-1.6-3.7-2.5-5.9-2.6
	C434.7,140.4,435.9,142.4,437.7,143.9z"/>
<path class="st1" d="M432.4,192.2c2.4,0.4,4.9-0.1,6.9-1.5c-1.7-1.8-4-2.9-6.4-3.2c-2.4-0.4-4.9,0.1-6.9,1.5
	C427.6,190.8,429.9,192,432.4,192.2z"/>
<path class="st1" d="M439.5,138.1c0.1-2.6-0.6-5.2-2.1-7.4c-1.2-2.2-3.2-3.9-5.5-4.8c-0.1,2.6,0.6,5.2,2.1,7.4
	C435.2,135.5,437.2,137.2,439.5,138.1z"/>
<path class="st1" d="M436.9,178.7c1.2-2.4,1.6-5.1,1.2-7.7c-2.2,1.2-4,3.2-4.9,5.6c-1.2,2.4-1.6,5.1-1.2,7.7
	C434.2,183,435.9,181.1,436.9,178.7z"/>
<path class="st1" d="M443.3,141.3c1.4-2.3,2-4.9,1.7-7.6c0-2.6-0.9-5.2-2.5-7.3c-1.4,2.3-2,5-1.7,7.6
	C440.9,136.6,441.7,139.2,443.3,141.3z"/>
<path class="st1" d="M445.6,150.1c1.8-1.9,2.9-4.3,3.2-6.9c0.5-2.6,0.2-5.3-0.9-7.7c-1.8,1.9-2.9,4.3-3.2,6.9
	C444.2,144.9,444.5,147.6,445.6,150.1z"/>
<path class="st1" d="M446,158.6c0.2-2.4-0.3-4.7-1.5-6.8c-1-2-2.7-3.7-4.8-4.6c-0.2,2.4,0.3,4.8,1.5,6.8
	C442.2,156.1,443.9,157.7,446,158.6z"/>
<path class="st1" d="M446.9,155.9c2.3-1.2,4-3.1,5-5.4c1.2-2.3,1.7-5,1.3-7.7c-2.3,1.2-4,3.1-5,5.4
	C447,150.6,446.5,153.3,446.9,155.9z"/>
<path class="st1" d="M438.8,165.4c-0.5,2.6-0.2,5.3,1,7.7c1.8-1.9,2.9-4.4,3.2-7c0.5-2.6,0.2-5.3-1-7.7
	C440.2,160.3,439,162.8,438.8,165.4z"/>
<path class="st1" d="M378.3,154.3c0.1,2.6,1,5.2,2.7,7.2c1.4,2.1,3.5,3.6,5.9,4.2c-0.1-2.6-1-5.2-2.7-7.2
	C382.8,156.5,380.7,155,378.3,154.3z"/>
<path class="st1" d="M391.5,186.5c2.4,0.6,4.9,0.2,7-1c-1.6-1.9-3.8-3.2-6.2-3.6c-2.4-0.6-4.9-0.2-7,1
	C386.9,184.8,389.1,186.1,391.5,186.5z"/>
<path class="st1" d="M425.8,187.8c2.1-1.5,3.7-3.6,4.4-6c-2.4-0.1-4.8,0.6-6.7,2.2c-2.1,1.5-3.7,3.6-4.4,6.1
	C421.6,190.1,424,189.4,425.8,187.8z"/>
<path class="st1" d="M382.1,173c0.9,2.4,2.5,4.4,4.7,5.7c2,1.4,4.4,2,6.8,1.7c-0.9-2.4-2.5-4.4-4.7-5.7
	C386.9,173.3,384.5,172.7,382.1,173z"/>
<path class="st1" d="M390.4,154.1c1.2-2,1.8-4.4,1.5-6.8c-2.1,0.9-3.8,2.5-4.8,4.6c-1.2,2-1.8,4.4-1.5,6.8
	C387.7,157.7,389.4,156.1,390.4,154.1z"/>
<path class="st1" d="M391.9,173.1c1.1-2.4,1.5-5.1,1-7.7c-0.3-2.6-1.4-5-3.2-6.9c-1.1,2.4-1.5,5.1-1,7.7
	C389,168.8,390.1,171.2,391.9,173.1z"/>
<path class="st1" d="M392.4,190.7c2,1.4,4.5,1.9,6.9,1.5c2.5-0.2,4.7-1.4,6.4-3.2c-2-1.4-4.5-1.9-6.9-1.5
	C396.3,187.8,394.1,188.9,392.4,190.7z"/>
<path class="st1" d="M407.2,191.1c-2.4,0.5-4.6,1.9-6.1,3.9c2.2,1.1,4.7,1.3,7,0.6c2.3-0.5,4.4-1.8,5.9-3.7c0.3,0.3,0.7,0.6,1,0.9
	c-3,1.8-5.6,4.2-7.6,7.1l2.3,3.6c1.5-3.6,3.5-7,6.1-9.9c2.7,2.9,4.9,6.3,6.5,10l2.3-3.6c-2.2-2.9-4.9-5.3-8-7.1
	c0.3-0.3,0.7-0.6,1-0.9c1.5,1.9,3.6,3.2,5.9,3.7c2.3,0.7,4.8,0.5,7-0.6c-2.9-3.7-7.8-5.1-12.3-3.6l0,0l0,0H418
	c-0.8,0.3-1.5,0.7-2.2,1.1c-0.8-0.4-1.6-0.8-2.5-1.2C411.3,190.6,409.2,190.6,407.2,191.1z"/>
<path class="st1" d="M405.8,187.8c1.9,1.5,4.3,2.3,6.7,2.2c-0.7-2.5-2.3-4.6-4.4-6.1c-1.9-1.5-4.3-2.3-6.7-2.2
	C402.1,184.2,403.7,186.4,405.8,187.8z"/>
<path class="st1" d="M450.7,161.6c1.6-2.1,2.6-4.6,2.7-7.2c-2.4,0.6-4.5,2.1-5.9,4.2c-1.6,2.1-2.6,4.6-2.7,7.2
	C447.2,165.1,449.3,163.6,450.7,161.6z"/>
<path class="st1" d="M442.7,174.7c-2.2,1.3-3.9,3.3-4.7,5.7c2.4,0.3,4.9-0.3,6.8-1.7c2.2-1.3,3.9-3.3,4.7-5.7
	C447.1,172.7,444.7,173.3,442.7,174.7z"/>
<path class="st1" d="M447.5,165.8c-2.2,1.3-3.9,3.3-4.7,5.7c2.4,0.3,4.9-0.3,6.8-1.7c2.2-1.3,3.9-3.3,4.7-5.7
	C451.9,163.7,449.5,164.3,447.5,165.8z"/>
<path class="st1" d="M439.4,181.9c-2.4,0.4-4.7,1.7-6.2,3.6c2.1,1.2,4.6,1.6,7,1c2.4-0.4,4.7-1.7,6.2-3.6
	C444.2,181.7,441.7,181.3,439.4,181.9z"/>
<path class="st1" d="M453.2,142.8c0.4,2.6-0.1,5.3-1.3,7.7c-1,2.3-2.8,4.3-5,5.4c-0.4-2.6,0.1-5.3,1.3-7.6
	C449.2,145.9,451,144,453.2,142.8z"/>
<path class="st1" d="M441.2,154.1c-1.2-2-1.8-4.4-1.5-6.8c2.1,0.9,3.8,2.5,4.8,4.6c1.2,2,1.8,4.4,1.5,6.8
	C443.9,157.7,442.2,156.1,441.2,154.1z"/>
<path class="st1" d="M442.9,166.2c-0.3,2.6-1.4,5-3.2,7c-1.1-2.4-1.5-5.1-1-7.7c0.3-2.6,1.4-5,3.2-6.9
	C443,160.9,443.4,163.6,442.9,166.2z"/>
<path class="st1" d="M447.4,158.6c1.4-2.1,3.5-3.6,5.9-4.2c-0.1,2.6-1,5.2-2.7,7.2c-1.4,2.1-3.5,3.6-5.9,4.2
	C444.9,163.2,445.8,160.6,447.4,158.6z"/>
<path class="st1" d="M447.9,135.5c1.1,2.4,1.4,5.1,0.9,7.7c-0.3,2.6-1.4,5-3.2,6.8c-1.1-2.4-1.4-5.1-0.9-7.7
	C445,139.8,446.1,137.3,447.9,135.5z"/>
<path class="st1" d="M442.6,126.4c1.6,2.1,2.5,4.7,2.5,7.3c0.2,2.6-0.3,5.3-1.7,7.6c-1.6-2.1-2.5-4.6-2.5-7.2
	C440.6,131.4,441.2,128.7,442.6,126.4z"/>
<path class="st1" d="M443.5,146.5c-2.2-0.1-4.3-1-5.9-2.6c-1.8-1.5-3-3.6-3.5-5.8c2.2,0.1,4.3,1,5.9,2.6
	C441.9,142.2,443.1,144.2,443.5,146.5z"/>
<path class="st1" d="M431.9,125.9c2.3,0.9,4.3,2.6,5.5,4.8c1.5,2.2,2.2,4.8,2.1,7.4c-2.4-0.9-4.3-2.6-5.5-4.8
	C432.5,131.1,431.8,128.5,431.9,125.9z"/>
<path class="st1" d="M433.1,176.5c0.9-2.4,2.7-4.3,4.9-5.6c0.4,2.6,0,5.3-1.2,7.7c-0.9,2.4-2.7,4.3-4.9,5.5
	C431.5,181.6,432,178.9,433.1,176.5z"/>
<path class="st1" d="M432.8,187.5c2.5,0.2,4.7,1.4,6.4,3.2c-2,1.4-4.5,1.9-6.9,1.5c-2.5-0.2-4.7-1.4-6.4-3.2
	C428,187.7,430.4,187.1,432.8,187.5z"/>
<path class="st1" d="M423.5,183.9c1.9-1.5,4.3-2.3,6.7-2.2c-0.7,2.5-2.3,4.6-4.4,6c-1.9,1.5-4.3,2.3-6.7,2.2
	C419.8,187.5,421.4,185.4,423.5,183.9z"/>
<path class="st1" d="M415.7,192.5c0.7-0.4,1.4-0.7,2.2-1.1h0.1l0,0l0,0c4.5-1.5,9.4,0,12.3,3.7c-2.2,1.1-4.7,1.3-7,0.6
	c-2.4-0.5-4.5-1.9-5.9-3.8c-0.3,0.3-0.7,0.6-1,0.9c3.1,1.8,5.8,4.2,8,7.1l-2.3,3.6c-1.6-3.7-3.7-7-6.5-10c-2.6,2.9-4.6,6.3-6.1,9.9
	l-2.3-3.6c2.1-2.8,4.6-5.2,7.6-7.1c-0.3-0.3-0.7-0.6-1-0.9c-1.5,1.9-3.6,3.2-5.9,3.7c-2.3,0.7-4.8,0.5-7-0.6
	c2.9-3.7,7.7-5.1,12.2-3.7C414.1,191.7,414.9,192.1,415.7,192.5z"/>
<path class="st1" d="M408.1,183.9c2.1,1.5,3.7,3.6,4.4,6.1c-2.4,0.2-4.8-0.6-6.7-2.2c-2.1-1.5-3.7-3.6-4.4-6
	C403.8,181.6,406.2,182.4,408.1,183.9z"/>
<path class="st1" d="M405.7,189c-1.7,1.8-3.9,3-6.4,3.2c-2.4,0.4-4.9-0.1-6.9-1.5c1.7-1.8,4-2.9,6.4-3.2
	C401.2,187.1,403.7,187.7,405.7,189z"/>
<path class="st1" d="M385.7,158.6c-0.2-2.4,0.3-4.7,1.5-6.8c1-2,2.7-3.7,4.8-4.6c0.2,2.4-0.3,4.8-1.5,6.8
	C389.4,156.1,387.7,157.7,385.7,158.6z"/>
<path class="st1" d="M386.8,165.8c-2.4-0.6-4.5-2.2-5.9-4.2c-1.6-2.1-2.6-4.6-2.7-7.2c2.4,0.6,4.5,2.1,5.9,4.2
	C385.8,160.6,386.8,163.1,386.8,165.8z"/>
<path class="st1" d="M389.7,158.4c1.8,1.9,2.9,4.3,3.2,6.9c0.5,2.6,0.2,5.3-1,7.7c-1.8-1.9-2.9-4.4-3.2-7
	C388.2,163.5,388.6,160.8,389.7,158.4z"/>
<path class="st1" d="M393.7,180.4c-2.4,0.3-4.9-0.3-6.8-1.7c-2.2-1.3-3.9-3.3-4.7-5.7c2.4-0.3,4.9,0.3,6.8,1.7
	C391.1,176,392.8,178,393.7,180.4z"/>
<path class="st1" d="M392.3,181.9c2.4,0.4,4.7,1.7,6.2,3.6c-2.1,1.2-4.6,1.6-7,1c-2.4-0.4-4.7-1.7-6.2-3.6
	C387.4,181.7,389.9,181.3,392.3,181.9z"/>
<path class="st1" d="M399.7,184.2c-2.2-1.2-4-3.2-4.9-5.6c-1.2-2.4-1.6-5.1-1.2-7.7c2.2,1.2,4,3.2,4.9,5.6
	C399.7,178.9,400.1,181.6,399.7,184.2z"/>
<path class="st1" d="M394.2,130.7c1.2-2.2,3.2-3.9,5.5-4.8c0.1,2.6-0.6,5.2-2.1,7.4c-1.2,2.2-3.2,3.9-5.6,4.8
	C391.9,135.5,392.7,132.9,394.2,130.7z"/>
<path class="st1" d="M391.6,140.7c1.6-1.6,3.6-2.5,5.8-2.6c-0.5,2.3-1.7,4.3-3.5,5.8c-1.6,1.6-3.7,2.5-5.9,2.5
	C388.6,144.2,389.8,142.2,391.6,140.7z"/>
<path class="st1" d="M386.6,133.7c0-2.6,0.9-5.2,2.5-7.3c1.3,2.3,1.9,5,1.6,7.6c0,2.6-0.9,5.2-2.5,7.3
	C386.9,139,386.3,136.4,386.6,133.7z"/>
<path class="st1" d="M383.7,135.5c1.8,1.9,2.9,4.3,3.2,6.9c0.5,2.6,0.2,5.3-0.9,7.7c-1.8-1.9-2.9-4.3-3.2-6.9
	C382.3,140.6,382.6,137.9,383.7,135.5z"/>
<path class="st1" d="M378.4,142.8c2.3,1.2,4,3.1,5,5.4c1.2,2.3,1.7,5,1.3,7.6c-2.3-1.2-4-3.1-5-5.4
	C378.5,148.1,378,145.4,378.4,142.8z"/>
<path class="st1" d="M384.1,165.8c2.2,1.3,3.9,3.3,4.7,5.7c-2.4,0.3-4.9-0.3-6.8-1.7c-2.2-1.3-3.9-3.3-4.7-5.7
	C379.6,163.7,382.1,164.3,384.1,165.8z"/>
<path class="st1" d="M440.1,186.5c-2.4,0.6-4.9,0.2-7-1c1.6-1.9,3.8-3.2,6.2-3.6c2.4-0.6,4.9-0.2,7,1
	C444.8,184.8,442.6,186.1,440.1,186.5z"/>
<path class="st1" d="M444.8,178.7c-2,1.4-4.4,2-6.8,1.7c0.9-2.4,2.5-4.4,4.7-5.7c2-1.4,4.4-2,6.8-1.7
	C448.7,175.4,447,177.4,444.8,178.7z"/>
<path class="st1" d="M449.6,169.8c-2,1.4-4.4,2-6.8,1.7c0.9-2.4,2.5-4.4,4.7-5.7c2-1.4,4.4-2,6.8-1.7
	C453.5,166.5,451.8,168.5,449.6,169.8z"/>
<path class="st1" d="M292.8,453c-0.5,0-1.3-0.1-2.3-0.1c-0.7,0-1.5,0-2.5,0.1h-0.3v-0.3c0.4-2.4,0.5-4.8,0.5-7.3V432
	c0-3.7-0.3-4.1-1.5-4.1c-0.5,0-1,0.1-1.5,0.2l-2.1,0.5c-0.5,0.1-1,0.3-1.5,0.5h-0.1l-0.6-0.5l0.1-0.2c0.4-0.8,0.7-1.6,0.9-2.4v-0.2
	h0.2c1-0.1,2.1-0.2,3.1-0.5l4.5-1c0.8-0.2,1.7-0.4,2.5-0.6h0.1l0.5,0.5v0.1c-0.3,2.3-0.5,4.7-0.5,7V446c-0.1,2.3,0.2,4.6,0.8,6.8
	l0.1,0.3L292.8,453z"/>
<path class="st1" d="M324.4,453.3v0.2h-0.2c0,0-3.4,0-5.3,0.2h-0.2l-0.4-0.7l14.6-24.8h-9.1c-1.7-0.1-3.4,0.4-4.8,1.3l-0.1,0.1
	l-0.7-0.3l0.1-0.2c0.5-1.5,0.8-2.9,1-4.5v-0.2h0.2c1.1,0.1,2.2,0.1,3.4,0.1h10.5c1.1,0,2.1,0,3.2-0.1h0.2v0.2
	c0.1,0.9,0.3,1.8,0.5,2.7v0.1l-0.1,0.1c-2.8,3.6-5.2,7.4-7.3,11.5C326.2,445.7,324.8,449.5,324.4,453.3z"/>
<path class="st1" d="M309.5,437c2.7-1.5,5.3-3.4,5.3-7.1c0-4-3.3-6.9-7.9-6.9c-4.6,0-8.4,3.4-8.4,7.7c0,3.6,2.4,5.6,4.9,7.1
	c-3.9,2.3-6.3,4.5-6.3,8.3c0,4.5,3.6,7.7,8.8,7.7c5.7,0,9.9-3.6,9.9-8.6C315.7,441.1,312.7,438.8,309.5,437z M302.1,429.9
	c0-2.6,2-4.7,4.5-4.7c0.1,0,0.2,0,0.2,0c2.6-0.1,4.7,1.9,4.8,4.5c0,0.1,0,0.2,0,0.3c0,3.1-2.2,4.7-4.5,6
	C304.6,434.5,302.1,432.9,302.1,429.9L302.1,429.9z M306.1,451.7c-3,0.1-5.6-2.2-5.7-5.3c0-0.1,0-0.2,0-0.4c0-3.5,2.7-5.6,5.5-7
	c3.8,2.1,6.2,3.8,6.2,7c-0.1,3.2-2.7,5.7-5.8,5.6C306.2,451.7,306.2,451.7,306.1,451.7L306.1,451.7z"/>
<path class="st1" d="M349.6,437.6c2.7-1.5,5.2-3.4,5.2-7.1c0-4-3.3-6.9-7.9-6.9s-8.4,3.4-8.4,7.7c0,3.6,2.4,5.6,4.9,7.1
	c-3.9,2.3-6.3,4.5-6.3,8.3c0,4.5,3.6,7.7,8.8,7.7c5.7,0,9.9-3.6,9.9-8.6C355.9,441.7,352.9,439.4,349.6,437.6z M342.6,430.5
	c0-2.6,2-4.7,4.6-4.7c0.1,0,0.1,0,0.2,0c2.6-0.1,4.7,2,4.8,4.5c0,0.1,0,0.2,0,0.3c0,3.1-2.3,4.7-4.5,6
	C345.1,435.1,342.6,433.5,342.6,430.5L342.6,430.5z M346.6,452.3c-3.1,0.1-5.6-2.3-5.7-5.3c0-0.1,0-0.2,0-0.3c0-3.5,2.7-5.6,5.5-7
	c3.8,2.1,6.2,3.8,6.2,7c-0.1,3.2-2.7,5.7-5.8,5.6C346.7,452.3,346.7,452.3,346.6,452.3L346.6,452.3z"/>
<path class="st1" d="M232.3,393l-2.3,8.4c-8.8-0.3-14.5-0.3-19.6-0.3c-6.4,0-10.7,0-14.1,0.1c0.7-4.9,1.1-9.8,1.1-14.7V362
	c0-4-0.1-11.5-1.5-14.9c2.7,0.2,4.4,0.2,6.4,0.2h14.6c5.2,0,7.3-0.2,12.9-0.2l-2.5,9.1c-0.4,1.5-1.2,0.4-1.3,0.2
	c-2.4-3.5-7.1-3.9-11.5-3.9c-1.3,0-3,0.1-5,0.2c-0.1,1.3-0.3,5-0.3,8.4v7.9h6.4c3.8,0,7.6-0.2,11.3-0.6c0.8-0.1,0.6,0.5,0.6,0.5
	l-1.9,6.7c-3.7-0.4-7.4-0.6-11.1-0.6H209v11c0,7.1,0.8,9.5,9.2,9.5c4.8,0,7.4,0,12.6-3.9C231.7,390.7,232.8,391.1,232.3,393z"/>
<path class="st1" d="M255.6,393c-1,2.6-1.8,5.3-2.3,8c-0.8-0.1-2.6-0.1-4.4-0.1c-1.5,0-3.5,0.1-5,0.2c-0.5-3.1-1.3-6.1-2.3-9
	l-5.1-15.7c-1.5-4.7-3.4-9.8-6.8-13.7c4.7,0.1,9.4,0,14.1-0.5c0.4,3.8,1.1,7.5,2.3,11.1l2.9,9.9c0.7,2.3,2.2,7.5,2.2,7.5
	c0.5-1.7,1.2-3.3,1.7-4.8l4.5-11.6c1.1-2.7,1.8-5.5,2.1-8.3c0-1.1,0.1-2.1,0-3.4c1.1,0.1,3.1,0.1,4.7,0.1c1.8,0,3.5-0.1,5.3-0.3
	c1.1-0.1,0.9,0.5,0.6,1c-2.8,3.9-5.1,8.2-6.8,12.7L255.6,393z"/>
<path class="st1" d="M318,401c-1.3-0.1-3.8-0.2-6.2-0.2c-2.4,0-4.9,0.1-6.4,0.2c0.7-4.6,1-9.3,0.9-14v-9.4c0-3.8-0.3-10.5-1.7-14.7
	c3,0,7.6-0.2,10.8-0.3l-0.1,8.9l2.8-3.7c3.5-4.6,6-6.1,9.7-6.1c1.2,0,2.3,0.2,3.4,0.7c-1.1,4-2.3,8.2-2.9,10.6
	c-0.1,0.5-0.6,1.2-1.3,0.4c-1.5-1.7-1.8-2.3-3.6-2.3c-2.3,0.1-4.3,1.4-5.3,3.4c-1.1,1.8-1.6,3.3-1.6,7.1v6.4
	C316.4,394.8,316.9,397.6,318,401z"/>
<path class="st1" d="M361.4,363.3l-1.5,5.7c-2.3-0.3-4.6-0.4-7-0.4h-3.5c-0.2,2.7-0.2,5.8-0.2,8v8.9c0,6,0.6,10.4,5.8,10.4
	c1.8,0,3.5-0.5,5.1-1.4c0.3-0.2,1.1-0.1,0.9,0.9c-0.5,1.7-0.9,3.3-1.5,5.3c-3,1-6.1,1.5-9.2,1.6c-6.7,0-11.1-2.9-11.1-12.6v-12
	c0-3.9,0-6.7-0.2-9.2c-1.8,0-3.6,0.2-5.3,0.4c-0.2,0-0.8,0-0.5-0.9l1.3-5c1,0.1,2.9,0.1,4.8,0.1c0-3.1-0.2-4.7-0.3-7.1
	c3.5-1.1,6.9-2.6,10-4.5c0.8-0.5,1.2,0.2,1.1,1.1c-0.5,3.5-0.7,7-0.7,10.5h5.5c2,0.1,4-0.1,6-0.5
	C361.1,362.5,361.6,362.6,361.4,363.3z"/>
<path class="st1" d="M437.9,400.9c-2.5,0-5.1,0.1-6.4,0.2c0.7-5,1-10,0.9-15v-6.9c0-4.6-0.3-9.9-6.8-9.9c-2.4,0-4.7,1-6.4,2.7
	c-2,2-2.5,3.7-2.5,8.6v5.6c0,7.2,0.5,11.6,1.6,15c-1.2-0.1-3.8-0.2-6.3-0.2c-2.5,0-5.1,0.1-6.4,0.2c0.7-5,1-10,0.9-15v-9.7
	c0.1-4.7-0.5-9.3-1.7-13.8c3.5,0,8.3,0,11.7-0.3l-0.2,6.8l3.2-2.7c3.9-3.3,7.1-4.6,11-4.6c9.1,0,12.1,5.1,12.1,14v10.2
	c0,7.2,0.5,11.6,1.6,15C443,401,440.4,400.9,437.9,400.9z"/>
<path class="st1" d="M300.2,381c1.3,0,1.3-3.3,1.3-4.1c0-9.3-6-15-15.5-15c-11.1,0-18.8,8.4-18.8,20.4c0,12.1,7.6,20,19.5,20
	c4.1-0.2,8.2-0.9,12.1-2.3c0.6-2.3,0.8-3,1.6-5.7c0.3-1.3-0.4-1.7-1-1.2c-2.3,1.8-5.1,2.7-8,2.5c-8.3,0-13.3-5.3-13.4-14.5
	c2.6-0.2,8.2-0.2,12.3-0.2L300.2,381z M278,376.4c0.4-6.4,2.5-10.1,7.4-10.1c3.3-0.1,6.1,2.6,6.1,5.9c0,0.1,0,0.2,0,0.3
	c0,2.5-1.3,3.5-4.7,3.6L278,376.4z"/>
<path class="st1" d="M383.4,361.8c-13.9,0-21.2,8.9-21.2,21.1s7.2,19.5,19.4,19.5c12.8,0,21.1-8.3,21.1-21.4
	C402.6,368.8,395.7,361.8,383.4,361.8z M382.4,397.9c-5.9,0-9.2-5.8-9.2-16.6c0-9.2,2.5-15.1,8.9-15.1c6.1,0,9.4,5.8,9.4,16.6
	C391.6,392.8,388.4,397.9,382.4,397.9L382.4,397.9z"/>
</svg>
